# xmcd
#
# Track frame offsets: 
#        150
#        16883
#        28305
#        44728
#        60330
#        79625
#        93128
#        112788
#        132270
#        149238
#        163103
#
# Disc length: 2503 seconds
#
# Revision: 5
# Processed by: cddbd v1.5.2PL0 Copyright (c) Steve Scherf et al.
# Submitted via: ExactAudioCopy v1.0b3
#
DISCID=8f09c50b
DTITLE=Gary Allan - Alright Guy
DYEAR=2001
DGENRE=Country
TTITLE0=Man To Man
TTITLE1=The Devil's Candy
TTITLE2=What I'd Say
TTITLE3=Man Of Me
TTITLE4=Adobe Walls
TTITLE5=What's On My Mind
TTITLE6=Alright Guy
TTITLE7=The One
TTITLE8=I'm Doin' My Best
TTITLE9=I Don't Look Back
TTITLE10=What Would Willie Do
EXTD=YEAR: 2001 ID3G: 2
EXTT0=
EXTT1=
EXTT2=
EXTT3=
EXTT4=
EXTT5=
EXTT6=
EXTT7=
EXTT8=
EXTT9=
EXTT10=
PLAYORDER=
